<svg width="29" height="33" viewBox="0 0 29 33" fill="none" xmlns="http://www.w3.org/2000/svg">
<path d="M19.2394 15.675C19.2394 16.6815 18.4937 17.5065 17.5491 17.5065C16.6211 17.5065 15.8589 16.6815 15.8589 15.675C15.8589 14.6685 16.6046 13.8435 17.5491 13.8435C18.4937 13.8435 19.2394 14.6685 19.2394 15.675ZM11.5006 13.8435C10.556 13.8435 9.81029 14.6685 9.81029 15.675C9.81029 16.6815 10.5726 17.5065 11.5006 17.5065C12.4451 17.5065 13.1909 16.6815 13.1909 15.675C13.2074 14.6685 12.4451 13.8435 11.5006 13.8435ZM29 3.399V33C24.8252 29.3266 26.1603 30.5425 21.3109 26.0535L22.1891 29.106H3.39714C1.52457 29.106 0 27.588 0 25.707V3.399C0 1.518 1.52457 0 3.39714 0H25.6029C27.4754 0 29 1.518 29 3.399ZM24.2771 19.041C24.2771 13.728 21.8909 9.4215 21.8909 9.4215C19.5046 7.6395 17.2343 7.689 17.2343 7.689L17.0023 7.953C19.8194 8.811 21.1286 10.0485 21.1286 10.0485C17.1921 7.90034 12.5681 7.89995 8.74971 9.57C8.13657 9.8505 7.772 10.0485 7.772 10.0485C7.772 10.0485 9.14743 8.745 12.1303 7.887L11.9646 7.689C11.9646 7.689 9.69429 7.6395 7.308 9.4215C7.308 9.4215 4.92171 13.728 4.92171 19.041C4.92171 19.041 6.31371 21.4335 9.976 21.549C9.976 21.549 10.5891 20.8065 11.0863 20.1795C8.98171 19.5525 8.18629 18.2325 8.18629 18.2325C8.43007 18.4024 8.83205 18.6226 8.86571 18.645C11.6628 20.2046 15.6359 20.7156 19.2063 19.2225C19.7863 19.008 20.4326 18.6945 21.112 18.249C21.112 18.249 20.2834 19.602 18.1126 20.2125C18.6097 20.8395 19.2063 21.549 19.2063 21.549C22.8686 21.4335 24.2771 19.041 24.2771 19.041Z" fill="white"/>
</svg>
