<svg width="31" height="31" viewBox="0 0 31 31" fill="none" xmlns="http://www.w3.org/2000/svg">
<path d="M7.33667 24.8C7.33667 25.42 6.82 25.9367 6.2 25.9367C5.58 25.9367 5.06333 25.42 5.06333 24.8C5.06333 24.18 5.58 23.6633 6.2 23.6633C6.82 23.6633 7.33667 24.18 7.33667 24.8ZM31 24.8V6.2C31 2.79 28.21 0 24.8 0H6.2C2.79 0 0 2.79 0 6.2V18.8067H2.06667V6.2C2.06667 5.37333 2.37667 4.54667 2.79 3.82333L14.1567 12.9167C14.88 13.5367 16.0167 13.5367 16.74 12.9167L28.1067 3.82333C28.6233 4.54667 28.9333 5.37333 28.9333 6.2V24.8C28.9333 27.0733 27.0733 28.9333 24.8 28.9333H6.2C3.92667 28.9333 2.06667 27.0733 2.06667 24.8C2.06667 22.5267 3.92667 20.6667 6.2 20.6667H26.8667V18.6H6.2C2.79 18.6 0 21.39 0 24.8C0 28.21 2.79 31 6.2 31H24.8C28.21 31 31 28.21 31 24.8ZM6.2 2.06667H24.8C25.42 2.06667 26.04 2.17 26.5567 2.48L15.5 11.3667L4.44333 2.48C4.96 2.17 5.58 2.06667 6.2 2.06667Z" fill="white"/>
</svg>
