<svg width="402" height="202" viewBox="0 0 402 202" fill="none" xmlns="http://www.w3.org/2000/svg">
<path d="M5.91176 354.194C9.17674 354.194 11.8235 356.837 11.8235 360.097C11.8235 363.357 9.17674 366 5.91177 366C2.64679 366 -1.15528e-07 363.357 -2.58038e-07 360.097C-4.00549e-07 356.837 2.64679 354.194 5.91176 354.194Z" fill="#282828"/>
<path d="M5.91176 318.774C9.17674 318.774 11.8235 321.417 11.8235 324.677C11.8235 327.938 9.17674 330.581 5.91176 330.581C2.64679 330.581 -1.66376e-06 327.938 -1.80627e-06 324.677C-1.94878e-06 321.417 2.64679 318.774 5.91176 318.774Z" fill="#282828"/>
<path d="M5.91176 283.355C9.17674 283.355 11.8235 285.998 11.8235 289.258C11.8235 292.518 9.17674 295.161 5.91176 295.161C2.64678 295.161 -3.21199e-06 292.518 -3.3545e-06 289.258C-3.49701e-06 285.998 2.64678 283.355 5.91176 283.355Z" fill="#323131"/>
<path d="M5.91176 247.935C9.17674 247.935 11.8235 250.578 11.8235 253.839C11.8235 257.099 9.17674 259.742 5.91176 259.742C2.64678 259.742 -4.76021e-06 257.099 -4.90273e-06 253.839C-5.04524e-06 250.578 2.64678 247.935 5.91176 247.935Z" fill="#323131"/>
<path d="M5.91176 212.516C9.17674 212.516 11.8235 215.159 11.8235 218.419C11.8235 221.68 9.17674 224.323 5.91176 224.323C2.64678 224.323 -6.30844e-06 221.68 -6.45095e-06 218.419C-6.59347e-06 215.159 2.64678 212.516 5.91176 212.516Z" fill="#514747"/>
<path d="M5.91176 177.097C9.17673 177.097 11.8235 179.74 11.8235 183C11.8235 186.26 9.17673 188.903 5.91176 188.903C2.64678 188.903 -7.85667e-06 186.26 -7.99918e-06 183C-8.14169e-06 179.74 2.64678 177.097 5.91176 177.097Z" fill="#C4BFBF"/>
<path d="M5.91176 141.677C9.17673 141.677 11.8235 144.32 11.8235 147.581C11.8235 150.841 9.17673 153.484 5.91176 153.484C2.64678 153.484 -9.4049e-06 150.841 -9.54741e-06 147.581C-9.68992e-06 144.32 2.64678 141.677 5.91176 141.677Z" fill="#676666"/>
<path d="M5.91175 106.258C9.17673 106.258 11.8235 108.901 11.8235 112.161C11.8235 115.422 9.17673 118.065 5.91175 118.065C2.64678 118.065 -1.09531e-05 115.422 -1.10956e-05 112.161C-1.12382e-05 108.901 2.64678 106.258 5.91175 106.258Z" fill="#858282"/>
<path d="M5.91175 70.8387C9.17673 70.8387 11.8235 73.4817 11.8235 76.7419C11.8235 80.0022 9.17673 82.6452 5.91175 82.6452C2.64678 82.6452 -1.25014e-05 80.0022 -1.26439e-05 76.7419C-1.27864e-05 73.4817 2.64677 70.8387 5.91175 70.8387Z" fill="#D6D2D2"/>
<path d="M5.91175 35.4194C9.17673 35.4194 11.8235 38.0623 11.8235 41.3226C11.8235 44.5829 9.17673 47.2258 5.91175 47.2258C2.64677 47.2258 -1.40496e-05 44.5829 -1.41921e-05 41.3226C-1.43346e-05 38.0623 2.64677 35.4194 5.91175 35.4194Z" fill="#EEE9E9"/>
<path d="M5.91175 3.02592e-05C9.17673 3.01164e-05 11.8235 2.64297 11.8235 5.90323C11.8235 9.16349 9.17673 11.8065 5.91175 11.8065C2.64677 11.8065 -1.55978e-05 9.16349 -1.57403e-05 5.90323C-1.58828e-05 2.64297 2.64677 3.04019e-05 5.91175 3.02592e-05Z" fill="white"/>
<path d="M41.3824 354.194C44.6473 354.194 47.2941 356.837 47.2941 360.097C47.2941 363.357 44.6473 366 41.3824 366C38.1174 366 35.4706 363.357 35.4706 360.097C35.4706 356.837 38.1174 354.194 41.3824 354.194Z" fill="#282828"/>
<path d="M41.3824 318.774C44.6473 318.774 47.2941 321.417 47.2941 324.677C47.2941 327.938 44.6473 330.581 41.3824 330.581C38.1174 330.581 35.4706 327.938 35.4706 324.677C35.4706 321.417 38.1174 318.774 41.3824 318.774Z" fill="#282828"/>
<path d="M41.3824 283.355C44.6473 283.355 47.2941 285.998 47.2941 289.258C47.2941 292.518 44.6473 295.161 41.3824 295.161C38.1174 295.161 35.4706 292.518 35.4706 289.258C35.4706 285.998 38.1174 283.355 41.3824 283.355Z" fill="#323131"/>
<path d="M41.3823 247.935C44.6473 247.935 47.2941 250.578 47.2941 253.839C47.2941 257.099 44.6473 259.742 41.3824 259.742C38.1174 259.742 35.4706 257.099 35.4706 253.839C35.4706 250.578 38.1174 247.935 41.3823 247.935Z" fill="#323131"/>
<path d="M41.3823 212.516C44.6473 212.516 47.2941 215.159 47.2941 218.419C47.2941 221.68 44.6473 224.323 41.3823 224.323C38.1174 224.323 35.4706 221.68 35.4706 218.419C35.4706 215.159 38.1174 212.516 41.3823 212.516Z" fill="#514747"/>
<path d="M41.3823 177.097C44.6473 177.097 47.2941 179.74 47.2941 183C47.2941 186.26 44.6473 188.903 41.3823 188.903C38.1174 188.903 35.4706 186.26 35.4706 183C35.4706 179.74 38.1174 177.097 41.3823 177.097Z" fill="#858282"/>
<path d="M41.3823 141.677C44.6473 141.677 47.2941 144.32 47.2941 147.581C47.2941 150.841 44.6473 153.484 41.3823 153.484C38.1174 153.484 35.4706 150.841 35.4706 147.581C35.4706 144.32 38.1174 141.677 41.3823 141.677Z" fill="#676666"/>
<path d="M41.3823 106.258C44.6473 106.258 47.2941 108.901 47.2941 112.161C47.2941 115.422 44.6473 118.065 41.3823 118.065C38.1174 118.065 35.4706 115.422 35.4706 112.161C35.4706 108.901 38.1174 106.258 41.3823 106.258Z" fill="#858282"/>
<path d="M41.3823 70.8387C44.6473 70.8387 47.2941 73.4817 47.2941 76.7419C47.2941 80.0022 44.6473 82.6452 41.3823 82.6452C38.1174 82.6452 35.4706 80.0022 35.4706 76.7419C35.4706 73.4817 38.1174 70.8387 41.3823 70.8387Z" fill="#D6D2D2"/>
<path d="M41.3823 35.4194C44.6473 35.4194 47.2941 38.0623 47.2941 41.3226C47.2941 44.5829 44.6473 47.2258 41.3823 47.2258C38.1174 47.2258 35.4706 44.5829 35.4706 41.3226C35.4706 38.0623 38.1174 35.4194 41.3823 35.4194Z" fill="#EEE9E9"/>
<path d="M41.3823 2.87087e-05C44.6473 2.8566e-05 47.2941 2.64297 47.2941 5.90323C47.2941 9.16349 44.6473 11.8065 41.3823 11.8065C38.1174 11.8065 35.4706 9.16349 35.4706 5.90323C35.4706 2.64297 38.1174 2.88514e-05 41.3823 2.87087e-05Z" fill="white"/>
<path d="M76.8529 354.194C80.1179 354.194 82.7647 356.837 82.7647 360.097C82.7647 363.357 80.1179 366 76.8529 366C73.588 366 70.9412 363.357 70.9412 360.097C70.9412 356.837 73.588 354.194 76.8529 354.194Z" fill="#282828"/>
<path d="M76.8529 318.774C80.1179 318.774 82.7647 321.417 82.7647 324.677C82.7647 327.938 80.1179 330.581 76.8529 330.581C73.588 330.581 70.9412 327.938 70.9412 324.677C70.9412 321.417 73.588 318.774 76.8529 318.774Z" fill="#282828"/>
<path d="M76.8529 283.355C80.1179 283.355 82.7647 285.998 82.7647 289.258C82.7647 292.518 80.1179 295.161 76.8529 295.161C73.588 295.161 70.9412 292.518 70.9412 289.258C70.9412 285.998 73.588 283.355 76.8529 283.355Z" fill="#323131"/>
<path d="M76.8529 247.935C80.1179 247.935 82.7647 250.578 82.7647 253.839C82.7647 257.099 80.1179 259.742 76.8529 259.742C73.588 259.742 70.9412 257.099 70.9412 253.839C70.9412 250.578 73.588 247.935 76.8529 247.935Z" fill="#323131"/>
<path d="M76.8529 212.516C80.1179 212.516 82.7647 215.159 82.7647 218.419C82.7647 221.68 80.1179 224.323 76.8529 224.323C73.588 224.323 70.9412 221.68 70.9412 218.419C70.9412 215.159 73.588 212.516 76.8529 212.516Z" fill="#514747"/>
<path d="M76.8529 177.097C80.1179 177.097 82.7647 179.74 82.7647 183C82.7647 186.26 80.1179 188.903 76.8529 188.903C73.588 188.903 70.9412 186.26 70.9412 183C70.9412 179.74 73.588 177.097 76.8529 177.097Z" fill="#858282"/>
<path d="M76.8529 141.677C80.1179 141.677 82.7647 144.32 82.7647 147.581C82.7647 150.841 80.1179 153.484 76.8529 153.484C73.588 153.484 70.9412 150.841 70.9412 147.581C70.9412 144.32 73.588 141.677 76.8529 141.677Z" fill="#676666"/>
<path d="M76.8529 106.258C80.1179 106.258 82.7647 108.901 82.7647 112.161C82.7647 115.422 80.1179 118.065 76.8529 118.065C73.588 118.065 70.9412 115.422 70.9412 112.161C70.9412 108.901 73.588 106.258 76.8529 106.258Z" fill="#858282"/>
<path d="M76.8529 70.8387C80.1179 70.8387 82.7647 73.4817 82.7647 76.7419C82.7647 80.0022 80.1179 82.6452 76.8529 82.6452C73.588 82.6452 70.9412 80.0022 70.9412 76.7419C70.9412 73.4817 73.588 70.8387 76.8529 70.8387Z" fill="#D6D2D2"/>
<path d="M76.8529 35.4194C80.1179 35.4194 82.7647 38.0623 82.7647 41.3226C82.7647 44.5829 80.1179 47.2258 76.8529 47.2258C73.588 47.2258 70.9412 44.5829 70.9412 41.3226C70.9412 38.0623 73.588 35.4194 76.8529 35.4194Z" fill="#EEE9E9"/>
<path d="M76.8529 2.71582e-05C80.1179 2.70155e-05 82.7647 2.64296 82.7647 5.90323C82.7647 9.16349 80.1179 11.8065 76.8529 11.8065C73.588 11.8065 70.9412 9.16349 70.9412 5.90323C70.9412 2.64296 73.5879 2.73009e-05 76.8529 2.71582e-05Z" fill="white"/>
<path d="M112.324 354.194C115.589 354.194 118.235 356.837 118.235 360.097C118.235 363.357 115.589 366 112.324 366C109.059 366 106.412 363.357 106.412 360.097C106.412 356.837 109.059 354.194 112.324 354.194Z" fill="#282828"/>
<path d="M112.324 318.774C115.589 318.774 118.235 321.417 118.235 324.677C118.235 327.938 115.589 330.581 112.324 330.581C109.059 330.581 106.412 327.938 106.412 324.677C106.412 321.417 109.059 318.774 112.324 318.774Z" fill="#282828"/>
<path d="M112.324 283.355C115.589 283.355 118.235 285.998 118.235 289.258C118.235 292.518 115.589 295.161 112.324 295.161C109.059 295.161 106.412 292.518 106.412 289.258C106.412 285.998 109.059 283.355 112.324 283.355Z" fill="#323131"/>
<path d="M112.324 247.935C115.589 247.935 118.235 250.578 118.235 253.839C118.235 257.099 115.589 259.742 112.324 259.742C109.059 259.742 106.412 257.099 106.412 253.839C106.412 250.578 109.059 247.935 112.324 247.935Z" fill="#323131"/>
<path d="M112.324 212.516C115.589 212.516 118.235 215.159 118.235 218.419C118.235 221.68 115.589 224.323 112.324 224.323C109.059 224.323 106.412 221.68 106.412 218.419C106.412 215.159 109.059 212.516 112.324 212.516Z" fill="#514747"/>
<path d="M112.324 177.097C115.589 177.097 118.235 179.74 118.235 183C118.235 186.26 115.589 188.903 112.324 188.903C109.059 188.903 106.412 186.26 106.412 183C106.412 179.74 109.059 177.097 112.324 177.097Z" fill="#858282"/>
<path d="M112.324 141.677C115.589 141.677 118.235 144.32 118.235 147.581C118.235 150.841 115.589 153.484 112.324 153.484C109.059 153.484 106.412 150.841 106.412 147.581C106.412 144.32 109.059 141.677 112.324 141.677Z" fill="#676666"/>
<path d="M112.324 106.258C115.589 106.258 118.235 108.901 118.235 112.161C118.235 115.422 115.589 118.065 112.324 118.065C109.059 118.065 106.412 115.422 106.412 112.161C106.412 108.901 109.059 106.258 112.324 106.258Z" fill="#858282"/>
<path d="M112.324 70.8387C115.589 70.8387 118.235 73.4817 118.235 76.7419C118.235 80.0022 115.589 82.6452 112.324 82.6452C109.059 82.6452 106.412 80.0022 106.412 76.7419C106.412 73.4817 109.059 70.8387 112.324 70.8387Z" fill="#D6D2D2"/>
<path d="M112.324 35.4194C115.589 35.4194 118.235 38.0623 118.235 41.3226C118.235 44.5829 115.589 47.2258 112.324 47.2258C109.059 47.2258 106.412 44.5829 106.412 41.3226C106.412 38.0623 109.059 35.4194 112.324 35.4194Z" fill="#EEE9E9"/>
<path d="M112.324 2.56078e-05C115.589 2.5465e-05 118.235 2.64296 118.235 5.90322C118.235 9.16349 115.589 11.8065 112.324 11.8065C109.059 11.8065 106.412 9.16349 106.412 5.90322C106.412 2.64296 109.059 2.57505e-05 112.324 2.56078e-05Z" fill="white"/>
<path d="M147.794 354.194C151.059 354.194 153.706 356.837 153.706 360.097C153.706 363.357 151.059 366 147.794 366C144.529 366 141.882 363.357 141.882 360.097C141.882 356.837 144.529 354.194 147.794 354.194Z" fill="#282828"/>
<path d="M147.794 318.774C151.059 318.774 153.706 321.417 153.706 324.677C153.706 327.938 151.059 330.581 147.794 330.581C144.529 330.581 141.882 327.938 141.882 324.677C141.882 321.417 144.529 318.774 147.794 318.774Z" fill="#282828"/>
<path d="M147.794 283.355C151.059 283.355 153.706 285.998 153.706 289.258C153.706 292.518 151.059 295.161 147.794 295.161C144.529 295.161 141.882 292.518 141.882 289.258C141.882 285.998 144.529 283.355 147.794 283.355Z" fill="#323131"/>
<path d="M147.794 247.935C151.059 247.935 153.706 250.578 153.706 253.839C153.706 257.099 151.059 259.742 147.794 259.742C144.529 259.742 141.882 257.099 141.882 253.839C141.882 250.578 144.529 247.935 147.794 247.935Z" fill="#323131"/>
<path d="M147.794 212.516C151.059 212.516 153.706 215.159 153.706 218.419C153.706 221.68 151.059 224.323 147.794 224.323C144.529 224.323 141.882 221.68 141.882 218.419C141.882 215.159 144.529 212.516 147.794 212.516Z" fill="#514747"/>
<path d="M147.794 177.097C151.059 177.097 153.706 179.74 153.706 183C153.706 186.26 151.059 188.903 147.794 188.903C144.529 188.903 141.882 186.26 141.882 183C141.882 179.74 144.529 177.097 147.794 177.097Z" fill="#858282"/>
<path d="M147.794 141.677C151.059 141.677 153.706 144.32 153.706 147.581C153.706 150.841 151.059 153.484 147.794 153.484C144.529 153.484 141.882 150.841 141.882 147.581C141.882 144.32 144.529 141.677 147.794 141.677Z" fill="#676666"/>
<path d="M147.794 106.258C151.059 106.258 153.706 108.901 153.706 112.161C153.706 115.422 151.059 118.065 147.794 118.065C144.529 118.065 141.882 115.422 141.882 112.161C141.882 108.901 144.529 106.258 147.794 106.258Z" fill="#858282"/>
<path d="M147.794 70.8387C151.059 70.8387 153.706 73.4817 153.706 76.7419C153.706 80.0022 151.059 82.6452 147.794 82.6452C144.529 82.6452 141.882 80.0022 141.882 76.7419C141.882 73.4817 144.529 70.8387 147.794 70.8387Z" fill="#D6D2D2"/>
<path d="M147.794 35.4194C151.059 35.4194 153.706 38.0623 153.706 41.3226C153.706 44.5829 151.059 47.2258 147.794 47.2258C144.529 47.2258 141.882 44.5829 141.882 41.3226C141.882 38.0623 144.529 35.4194 147.794 35.4194Z" fill="#EEE9E9"/>
<path d="M147.794 2.40573e-05C151.059 2.39146e-05 153.706 2.64296 153.706 5.90322C153.706 9.16348 151.059 11.8065 147.794 11.8065C144.529 11.8065 141.882 9.16348 141.882 5.90322C141.882 2.64296 144.529 2.42e-05 147.794 2.40573e-05Z" fill="white"/>
<path d="M183.265 354.194C186.53 354.194 189.176 356.837 189.176 360.097C189.176 363.357 186.53 366 183.265 366C180 366 177.353 363.357 177.353 360.097C177.353 356.837 180 354.194 183.265 354.194Z" fill="#282828"/>
<path d="M183.265 318.774C186.53 318.774 189.176 321.417 189.176 324.677C189.176 327.938 186.53 330.581 183.265 330.581C180 330.581 177.353 327.938 177.353 324.677C177.353 321.417 180 318.774 183.265 318.774Z" fill="#282828"/>
<path d="M183.265 283.355C186.53 283.355 189.176 285.998 189.176 289.258C189.176 292.518 186.53 295.161 183.265 295.161C180 295.161 177.353 292.518 177.353 289.258C177.353 285.998 180 283.355 183.265 283.355Z" fill="#323131"/>
<path d="M183.265 247.935C186.53 247.935 189.176 250.578 189.176 253.839C189.176 257.099 186.53 259.742 183.265 259.742C180 259.742 177.353 257.099 177.353 253.839C177.353 250.578 180 247.935 183.265 247.935Z" fill="#323131"/>
<path d="M183.265 212.516C186.53 212.516 189.176 215.159 189.176 218.419C189.176 221.68 186.53 224.323 183.265 224.323C180 224.323 177.353 221.68 177.353 218.419C177.353 215.159 180 212.516 183.265 212.516Z" fill="#514747"/>
<path d="M183.265 177.097C186.53 177.097 189.176 179.74 189.176 183C189.176 186.26 186.53 188.903 183.265 188.903C180 188.903 177.353 186.26 177.353 183C177.353 179.74 180 177.097 183.265 177.097Z" fill="#858282"/>
<path d="M183.265 141.677C186.53 141.677 189.176 144.32 189.176 147.581C189.176 150.841 186.53 153.484 183.265 153.484C180 153.484 177.353 150.841 177.353 147.581C177.353 144.32 180 141.677 183.265 141.677Z" fill="#676666"/>
<path d="M183.265 106.258C186.53 106.258 189.176 108.901 189.176 112.161C189.176 115.422 186.53 118.065 183.265 118.065C180 118.065 177.353 115.422 177.353 112.161C177.353 108.901 180 106.258 183.265 106.258Z" fill="#858282"/>
<path d="M183.265 70.8387C186.53 70.8387 189.176 73.4817 189.176 76.7419C189.176 80.0022 186.53 82.6452 183.265 82.6452C180 82.6452 177.353 80.0022 177.353 76.7419C177.353 73.4817 180 70.8387 183.265 70.8387Z" fill="#D6D2D2"/>
<path d="M183.265 35.4194C186.53 35.4194 189.176 38.0623 189.176 41.3226C189.176 44.5829 186.53 47.2258 183.265 47.2258C180 47.2258 177.353 44.5829 177.353 41.3226C177.353 38.0623 180 35.4194 183.265 35.4194Z" fill="#EEE9E9"/>
<path d="M183.265 2.25068e-05C186.53 2.23641e-05 189.176 2.64296 189.176 5.90322C189.176 9.16348 186.53 11.8064 183.265 11.8064C180 11.8064 177.353 9.16348 177.353 5.90322C177.353 2.64296 180 2.26495e-05 183.265 2.25068e-05Z" fill="white"/>
<path d="M218.735 354.194C222 354.194 224.647 356.837 224.647 360.097C224.647 363.357 222 366 218.735 366C215.47 366 212.824 363.357 212.824 360.097C212.824 356.837 215.47 354.194 218.735 354.194Z" fill="#282828"/>
<path d="M218.735 318.774C222 318.774 224.647 321.417 224.647 324.677C224.647 327.938 222 330.581 218.735 330.581C215.47 330.581 212.824 327.938 212.824 324.677C212.824 321.417 215.47 318.774 218.735 318.774Z" fill="#282828"/>
<path d="M218.735 283.355C222 283.355 224.647 285.998 224.647 289.258C224.647 292.518 222 295.161 218.735 295.161C215.47 295.161 212.824 292.518 212.824 289.258C212.824 285.998 215.47 283.355 218.735 283.355Z" fill="#323131"/>
<path d="M218.735 247.935C222 247.935 224.647 250.578 224.647 253.839C224.647 257.099 222 259.742 218.735 259.742C215.47 259.742 212.824 257.099 212.824 253.839C212.824 250.578 215.47 247.935 218.735 247.935Z" fill="#323131"/>
<path d="M218.735 212.516C222 212.516 224.647 215.159 224.647 218.419C224.647 221.68 222 224.323 218.735 224.323C215.47 224.323 212.824 221.68 212.824 218.419C212.824 215.159 215.47 212.516 218.735 212.516Z" fill="#514747"/>
<path d="M218.735 177.097C222 177.097 224.647 179.74 224.647 183C224.647 186.26 222 188.903 218.735 188.903C215.47 188.903 212.824 186.26 212.824 183C212.824 179.74 215.47 177.097 218.735 177.097Z" fill="#858282"/>
<path d="M218.735 141.677C222 141.677 224.647 144.32 224.647 147.581C224.647 150.841 222 153.484 218.735 153.484C215.47 153.484 212.824 150.841 212.824 147.581C212.824 144.32 215.47 141.677 218.735 141.677Z" fill="#676666"/>
<path d="M218.735 106.258C222 106.258 224.647 108.901 224.647 112.161C224.647 115.422 222 118.065 218.735 118.065C215.47 118.065 212.824 115.422 212.824 112.161C212.824 108.901 215.47 106.258 218.735 106.258Z" fill="#858282"/>
<path d="M218.735 70.8387C222 70.8387 224.647 73.4817 224.647 76.7419C224.647 80.0022 222 82.6452 218.735 82.6452C215.47 82.6452 212.824 80.0022 212.824 76.7419C212.824 73.4817 215.47 70.8387 218.735 70.8387Z" fill="#D6D2D2"/>
<path d="M218.735 35.4194C222 35.4194 224.647 38.0623 224.647 41.3226C224.647 44.5829 222 47.2258 218.735 47.2258C215.47 47.2258 212.824 44.5829 212.824 41.3226C212.824 38.0623 215.47 35.4194 218.735 35.4194Z" fill="#EEE9E9"/>
<path d="M218.735 2.09564e-05C222 2.08136e-05 224.647 2.64296 224.647 5.90322C224.647 9.16348 222 11.8064 218.735 11.8064C215.47 11.8064 212.824 9.16348 212.824 5.90322C212.824 2.64296 215.47 2.10991e-05 218.735 2.09564e-05Z" fill="white"/>
<path d="M254.206 354.194C257.471 354.194 260.118 356.837 260.118 360.097C260.118 363.357 257.471 366 254.206 366C250.941 366 248.294 363.357 248.294 360.097C248.294 356.837 250.941 354.194 254.206 354.194Z" fill="#282828"/>
<path d="M254.206 318.774C257.471 318.774 260.118 321.417 260.118 324.677C260.118 327.938 257.471 330.581 254.206 330.581C250.941 330.581 248.294 327.938 248.294 324.677C248.294 321.417 250.941 318.774 254.206 318.774Z" fill="#282828"/>
<path d="M254.206 283.355C257.471 283.355 260.118 285.998 260.118 289.258C260.118 292.518 257.471 295.161 254.206 295.161C250.941 295.161 248.294 292.518 248.294 289.258C248.294 285.998 250.941 283.355 254.206 283.355Z" fill="#323131"/>
<path d="M254.206 247.935C257.471 247.935 260.118 250.578 260.118 253.839C260.118 257.099 257.471 259.742 254.206 259.742C250.941 259.742 248.294 257.099 248.294 253.839C248.294 250.578 250.941 247.935 254.206 247.935Z" fill="#323131"/>
<path d="M254.206 212.516C257.471 212.516 260.118 215.159 260.118 218.419C260.118 221.68 257.471 224.323 254.206 224.323C250.941 224.323 248.294 221.68 248.294 218.419C248.294 215.159 250.941 212.516 254.206 212.516Z" fill="#514747"/>
<path d="M254.206 177.097C257.471 177.097 260.118 179.74 260.118 183C260.118 186.26 257.471 188.903 254.206 188.903C250.941 188.903 248.294 186.26 248.294 183C248.294 179.74 250.941 177.097 254.206 177.097Z" fill="#858282"/>
<path d="M254.206 141.677C257.471 141.677 260.118 144.32 260.118 147.581C260.118 150.841 257.471 153.484 254.206 153.484C250.941 153.484 248.294 150.841 248.294 147.581C248.294 144.32 250.941 141.677 254.206 141.677Z" fill="#676666"/>
<path d="M254.206 106.258C257.471 106.258 260.118 108.901 260.118 112.161C260.118 115.422 257.471 118.065 254.206 118.065C250.941 118.065 248.294 115.422 248.294 112.161C248.294 108.901 250.941 106.258 254.206 106.258Z" fill="#858282"/>
<path d="M254.206 70.8387C257.471 70.8387 260.118 73.4817 260.118 76.7419C260.118 80.0022 257.471 82.6452 254.206 82.6452C250.941 82.6452 248.294 80.0022 248.294 76.7419C248.294 73.4817 250.941 70.8387 254.206 70.8387Z" fill="#D6D2D2"/>
<path d="M254.206 35.4194C257.471 35.4194 260.118 38.0623 260.118 41.3226C260.118 44.5829 257.471 47.2258 254.206 47.2258C250.941 47.2258 248.294 44.5829 248.294 41.3226C248.294 38.0623 250.941 35.4194 254.206 35.4194Z" fill="#EEE9E9"/>
<path d="M254.206 1.94059e-05C257.471 1.92632e-05 260.118 2.64296 260.118 5.90322C260.118 9.16348 257.471 11.8064 254.206 11.8064C250.941 11.8064 248.294 9.16348 248.294 5.90322C248.294 2.64296 250.941 1.95486e-05 254.206 1.94059e-05Z" fill="white"/>
<path d="M289.676 354.194C292.941 354.194 295.588 356.837 295.588 360.097C295.588 363.357 292.941 366 289.676 366C286.412 366 283.765 363.357 283.765 360.097C283.765 356.837 286.412 354.194 289.676 354.194Z" fill="#282828"/>
<path d="M289.676 318.774C292.941 318.774 295.588 321.417 295.588 324.677C295.588 327.938 292.941 330.581 289.676 330.581C286.412 330.581 283.765 327.938 283.765 324.677C283.765 321.417 286.412 318.774 289.676 318.774Z" fill="#282828"/>
<path d="M289.676 283.355C292.941 283.355 295.588 285.998 295.588 289.258C295.588 292.518 292.941 295.161 289.676 295.161C286.412 295.161 283.765 292.518 283.765 289.258C283.765 285.998 286.412 283.355 289.676 283.355Z" fill="#323131"/>
<path d="M289.676 247.935C292.941 247.935 295.588 250.578 295.588 253.839C295.588 257.099 292.941 259.742 289.676 259.742C286.412 259.742 283.765 257.099 283.765 253.839C283.765 250.578 286.412 247.935 289.676 247.935Z" fill="#323131"/>
<path d="M289.676 212.516C292.941 212.516 295.588 215.159 295.588 218.419C295.588 221.68 292.941 224.323 289.676 224.323C286.411 224.323 283.765 221.68 283.765 218.419C283.765 215.159 286.411 212.516 289.676 212.516Z" fill="#514747"/>
<path d="M289.676 177.097C292.941 177.097 295.588 179.74 295.588 183C295.588 186.26 292.941 188.903 289.676 188.903C286.411 188.903 283.765 186.26 283.765 183C283.765 179.74 286.411 177.097 289.676 177.097Z" fill="#858282"/>
<path d="M289.676 141.677C292.941 141.677 295.588 144.32 295.588 147.581C295.588 150.841 292.941 153.484 289.676 153.484C286.411 153.484 283.765 150.841 283.765 147.581C283.765 144.32 286.411 141.677 289.676 141.677Z" fill="#676666"/>
<path d="M289.676 106.258C292.941 106.258 295.588 108.901 295.588 112.161C295.588 115.422 292.941 118.065 289.676 118.065C286.411 118.065 283.765 115.422 283.765 112.161C283.765 108.901 286.411 106.258 289.676 106.258Z" fill="#858282"/>
<path d="M289.676 70.8387C292.941 70.8387 295.588 73.4817 295.588 76.7419C295.588 80.0022 292.941 82.6452 289.676 82.6452C286.411 82.6452 283.765 80.0022 283.765 76.7419C283.765 73.4817 286.411 70.8387 289.676 70.8387Z" fill="#D6D2D2"/>
<path d="M289.676 35.4194C292.941 35.4194 295.588 38.0623 295.588 41.3226C295.588 44.5828 292.941 47.2258 289.676 47.2258C286.411 47.2258 283.765 44.5829 283.765 41.3226C283.765 38.0623 286.411 35.4194 289.676 35.4194Z" fill="#EEE9E9"/>
<path d="M289.676 1.78554e-05C292.941 1.77127e-05 295.588 2.64295 295.588 5.90322C295.588 9.16348 292.941 11.8064 289.676 11.8064C286.411 11.8064 283.765 9.16348 283.765 5.90322C283.765 2.64296 286.411 1.79981e-05 289.676 1.78554e-05Z" fill="white"/>
<path d="M325.147 354.194C328.412 354.194 331.059 356.836 331.059 360.097C331.059 363.357 328.412 366 325.147 366C321.882 366 319.235 363.357 319.235 360.097C319.235 356.836 321.882 354.194 325.147 354.194Z" fill="#282828"/>
<path d="M325.147 318.774C328.412 318.774 331.059 321.417 331.059 324.677C331.059 327.938 328.412 330.581 325.147 330.581C321.882 330.581 319.235 327.938 319.235 324.677C319.235 321.417 321.882 318.774 325.147 318.774Z" fill="#282828"/>
<path d="M325.147 283.355C328.412 283.355 331.059 285.998 331.059 289.258C331.059 292.518 328.412 295.161 325.147 295.161C321.882 295.161 319.235 292.518 319.235 289.258C319.235 285.998 321.882 283.355 325.147 283.355Z" fill="#323131"/>
<path d="M325.147 247.935C328.412 247.935 331.059 250.578 331.059 253.839C331.059 257.099 328.412 259.742 325.147 259.742C321.882 259.742 319.235 257.099 319.235 253.839C319.235 250.578 321.882 247.935 325.147 247.935Z" fill="#323131"/>
<path d="M325.147 212.516C328.412 212.516 331.059 215.159 331.059 218.419C331.059 221.68 328.412 224.323 325.147 224.323C321.882 224.323 319.235 221.68 319.235 218.419C319.235 215.159 321.882 212.516 325.147 212.516Z" fill="#514747"/>
<path d="M325.147 177.097C328.412 177.097 331.059 179.74 331.059 183C331.059 186.26 328.412 188.903 325.147 188.903C321.882 188.903 319.235 186.26 319.235 183C319.235 179.74 321.882 177.097 325.147 177.097Z" fill="#858282"/>
<path d="M325.147 141.677C328.412 141.677 331.059 144.32 331.059 147.581C331.059 150.841 328.412 153.484 325.147 153.484C321.882 153.484 319.235 150.841 319.235 147.581C319.235 144.32 321.882 141.677 325.147 141.677Z" fill="#676666"/>
<path d="M325.147 106.258C328.412 106.258 331.059 108.901 331.059 112.161C331.059 115.422 328.412 118.065 325.147 118.065C321.882 118.065 319.235 115.422 319.235 112.161C319.235 108.901 321.882 106.258 325.147 106.258Z" fill="#858282"/>
<path d="M325.147 70.8387C328.412 70.8387 331.059 73.4817 331.059 76.7419C331.059 80.0022 328.412 82.6452 325.147 82.6452C321.882 82.6452 319.235 80.0022 319.235 76.7419C319.235 73.4817 321.882 70.8387 325.147 70.8387Z" fill="#D6D2D2"/>
<path d="M325.147 35.4194C328.412 35.4194 331.059 38.0623 331.059 41.3226C331.059 44.5828 328.412 47.2258 325.147 47.2258C321.882 47.2258 319.235 44.5828 319.235 41.3226C319.235 38.0623 321.882 35.4194 325.147 35.4194Z" fill="#EEE9E9"/>
<path d="M325.147 1.63049e-05C328.412 1.61622e-05 331.059 2.64295 331.059 5.90321C331.059 9.16348 328.412 11.8064 325.147 11.8064C321.882 11.8064 319.235 9.16348 319.235 5.90321C319.235 2.64295 321.882 1.64477e-05 325.147 1.63049e-05Z" fill="white"/>
<path d="M360.618 354.194C363.883 354.194 366.529 356.836 366.529 360.097C366.529 363.357 363.883 366 360.618 366C357.353 366 354.706 363.357 354.706 360.097C354.706 356.836 357.353 354.194 360.618 354.194Z" fill="#282828"/>
<path d="M360.618 318.774C363.883 318.774 366.529 321.417 366.529 324.677C366.529 327.938 363.883 330.581 360.618 330.581C357.353 330.581 354.706 327.938 354.706 324.677C354.706 321.417 357.353 318.774 360.618 318.774Z" fill="#282828"/>
<path d="M360.618 283.355C363.883 283.355 366.529 285.998 366.529 289.258C366.529 292.518 363.883 295.161 360.618 295.161C357.353 295.161 354.706 292.518 354.706 289.258C354.706 285.998 357.353 283.355 360.618 283.355Z" fill="#323131"/>
<path d="M360.618 247.935C363.883 247.935 366.529 250.578 366.529 253.839C366.529 257.099 363.883 259.742 360.618 259.742C357.353 259.742 354.706 257.099 354.706 253.839C354.706 250.578 357.353 247.935 360.618 247.935Z" fill="#323131"/>
<path d="M360.618 212.516C363.883 212.516 366.529 215.159 366.529 218.419C366.529 221.68 363.883 224.323 360.618 224.323C357.353 224.323 354.706 221.68 354.706 218.419C354.706 215.159 357.353 212.516 360.618 212.516Z" fill="#4E4848"/>
<path d="M360.618 177.097C363.883 177.097 366.529 179.74 366.529 183C366.529 186.26 363.883 188.903 360.618 188.903C357.353 188.903 354.706 186.26 354.706 183C354.706 179.74 357.353 177.097 360.618 177.097Z" fill="#858282"/>
<path d="M360.618 141.677C363.883 141.677 366.529 144.32 366.529 147.581C366.529 150.841 363.883 153.484 360.618 153.484C357.353 153.484 354.706 150.841 354.706 147.581C354.706 144.32 357.353 141.677 360.618 141.677Z" fill="#676666"/>
<path d="M360.618 106.258C363.883 106.258 366.529 108.901 366.529 112.161C366.529 115.422 363.883 118.065 360.618 118.065C357.353 118.065 354.706 115.422 354.706 112.161C354.706 108.901 357.353 106.258 360.618 106.258Z" fill="#858282"/>
<path d="M360.618 70.8387C363.883 70.8387 366.529 73.4817 366.529 76.7419C366.529 80.0022 363.883 82.6452 360.618 82.6452C357.353 82.6452 354.706 80.0022 354.706 76.7419C354.706 73.4817 357.353 70.8387 360.618 70.8387Z" fill="#D6D2D2"/>
<path d="M360.618 35.4194C363.883 35.4194 366.529 38.0623 366.529 41.3226C366.529 44.5828 363.883 47.2258 360.618 47.2258C357.353 47.2258 354.706 44.5828 354.706 41.3226C354.706 38.0623 357.353 35.4194 360.618 35.4194Z" fill="#EEE9E9"/>
<path d="M360.618 1.47545e-05C363.883 1.46118e-05 366.529 2.64295 366.529 5.90321C366.529 9.16347 363.883 11.8064 360.618 11.8064C357.353 11.8064 354.706 9.16347 354.706 5.90321C354.706 2.64295 357.353 1.48972e-05 360.618 1.47545e-05Z" fill="white"/>
<path d="M396.088 354.194C399.353 354.194 402 356.836 402 360.097C402 363.357 399.353 366 396.088 366C392.823 366 390.176 363.357 390.176 360.097C390.176 356.836 392.823 354.194 396.088 354.194Z" fill="#282828"/>
<path d="M396.088 318.774C399.353 318.774 402 321.417 402 324.677C402 327.938 399.353 330.581 396.088 330.581C392.823 330.581 390.176 327.938 390.176 324.677C390.176 321.417 392.823 318.774 396.088 318.774Z" fill="#282828"/>
<path d="M396.088 283.355C399.353 283.355 402 285.998 402 289.258C402 292.518 399.353 295.161 396.088 295.161C392.823 295.161 390.176 292.518 390.176 289.258C390.176 285.998 392.823 283.355 396.088 283.355Z" fill="#323131"/>
<path d="M396.088 247.935C399.353 247.935 402 250.578 402 253.839C402 257.099 399.353 259.742 396.088 259.742C392.823 259.742 390.176 257.099 390.176 253.839C390.176 250.578 392.823 247.935 396.088 247.935Z" fill="#323131"/>
<path d="M396.088 212.516C399.353 212.516 402 215.159 402 218.419C402 221.68 399.353 224.323 396.088 224.323C392.823 224.323 390.176 221.68 390.176 218.419C390.176 215.159 392.823 212.516 396.088 212.516Z" fill="#4E4848"/>
<path d="M396.088 177.097C399.353 177.097 402 179.74 402 183C402 186.26 399.353 188.903 396.088 188.903C392.823 188.903 390.176 186.26 390.176 183C390.176 179.74 392.823 177.097 396.088 177.097Z" fill="#858282"/>
<path d="M396.088 141.677C399.353 141.677 402 144.32 402 147.581C402 150.841 399.353 153.484 396.088 153.484C392.823 153.484 390.176 150.841 390.176 147.581C390.176 144.32 392.823 141.677 396.088 141.677Z" fill="#676666"/>
<path d="M396.088 106.258C399.353 106.258 402 108.901 402 112.161C402 115.422 399.353 118.065 396.088 118.065C392.823 118.065 390.176 115.422 390.176 112.161C390.176 108.901 392.823 106.258 396.088 106.258Z" fill="#858282"/>
<path d="M396.088 70.8387C399.353 70.8387 402 73.4817 402 76.7419C402 80.0022 399.353 82.6452 396.088 82.6452C392.823 82.6452 390.176 80.0022 390.176 76.7419C390.176 73.4817 392.823 70.8387 396.088 70.8387Z" fill="#D6D2D2"/>
<path d="M396.088 35.4194C399.353 35.4194 402 38.0623 402 41.3226C402 44.5828 399.353 47.2258 396.088 47.2258C392.823 47.2258 390.176 44.5828 390.176 41.3226C390.176 38.0623 392.823 35.4194 396.088 35.4194Z" fill="#EEE9E9"/>
<path d="M396.088 1.3204e-05C399.353 1.30613e-05 402 2.64295 402 5.90321C402 9.16347 399.353 11.8064 396.088 11.8064C392.823 11.8064 390.176 9.16347 390.176 5.90321C390.176 2.64295 392.823 1.33467e-05 396.088 1.3204e-05Z" fill="white"/>
</svg>
